<svg id="Layer_1" data-name="Layer 1" xmlns="http://www.w3.org/2000/svg" xmlns:xlink="http://www.w3.org/1999/xlink" viewBox="0 0 800 800"><defs><style>.cls-1{fill:url(#linear-gradient);}.cls-2{fill:url(#linear-gradient-2);}.cls-3{fill:url(#linear-gradient-3);}.cls-4{fill:url(#linear-gradient-4);}.cls-5{fill:url(#linear-gradient-5);}.cls-6{fill:url(#linear-gradient-6);}.cls-16,.cls-7{fill:none;stroke-width:21px;}.cls-7{stroke:#a67c52;}.cls-10,.cls-11,.cls-12,.cls-13,.cls-14,.cls-15,.cls-16,.cls-7,.cls-8,.cls-9{stroke-miterlimit:10;}.cls-10,.cls-11,.cls-12,.cls-13,.cls-14,.cls-15,.cls-8,.cls-9{stroke:#c69c6d;stroke-width:4px;}.cls-8{fill:url(#radial-gradient);}.cls-9{fill:url(#radial-gradient-2);}.cls-10{fill:url(#radial-gradient-3);}.cls-11{fill:url(#radial-gradient-4);}.cls-12{fill:url(#radial-gradient-5);}.cls-13{fill:url(#radial-gradient-6);}.cls-14{fill:url(#radial-gradient-7);}.cls-15{fill:url(#radial-gradient-8);}.cls-16{stroke:url(#linear-gradient-7);}.cls-17{fill:#a67c52;}.cls-18{fill:#c69c6d;}.cls-19{fill:url(#Sky);}</style><linearGradient id="linear-gradient" x1="398.5" y1="377" x2="398.5" y2="474" gradientUnits="userSpaceOnUse"><stop offset="0" stop-color="#c69c6d"/><stop offset="1" stop-color="#8c6239"/></linearGradient><linearGradient id="linear-gradient-2" x1="398.5" y1="280" x2="398.5" y2="377" xlink:href="#linear-gradient"/><linearGradient id="linear-gradient-3" x1="398.5" y1="474" x2="398.5" y2="571" xlink:href="#linear-gradient"/><linearGradient id="linear-gradient-4" x1="398.5" y1="571" x2="398.5" y2="667" xlink:href="#linear-gradient"/><linearGradient id="linear-gradient-5" x1="399.67" y1="138.37" x2="399.67" y2="186" xlink:href="#linear-gradient"/><linearGradient id="linear-gradient-6" x1="399.67" y1="186" x2="399.67" y2="280" xlink:href="#linear-gradient"/><radialGradient id="radial-gradient" cx="644.47" cy="328.72" r="48.54" gradientUnits="userSpaceOnUse"><stop offset="0" stop-color="#8c6239"/><stop offset="0.31" stop-color="#8f653c"/><stop offset="0.55" stop-color="#996f44"/><stop offset="0.76" stop-color="#a97f53"/><stop offset="0.96" stop-color="#c09667"/><stop offset="1" stop-color="#c69c6d"/></radialGradient><radialGradient id="radial-gradient-2" cx="644.47" cy="425.5" r="48.54" xlink:href="#radial-gradient"/><radialGradient id="radial-gradient-3" cx="644.47" cy="522.28" r="48.54" xlink:href="#radial-gradient"/><radialGradient id="radial-gradient-4" cx="644.47" cy="619.06" r="48.54" xlink:href="#radial-gradient"/><radialGradient id="radial-gradient-5" cx="154.78" cy="328.72" r="48.54" xlink:href="#radial-gradient"/><radialGradient id="radial-gradient-6" cx="154.78" cy="425.5" r="48.54" xlink:href="#radial-gradient"/><radialGradient id="radial-gradient-7" cx="154.78" cy="522.28" r="48.54" xlink:href="#radial-gradient"/><radialGradient id="radial-gradient-8" cx="154.78" cy="619.06" r="48.54" xlink:href="#radial-gradient"/><linearGradient id="linear-gradient-7" x1="399.92" y1="108.08" x2="399.92" y2="289.62" gradientUnits="userSpaceOnUse"><stop offset="0" stop-color="#fff"/><stop offset="0.3" stop-color="#eadbca"/><stop offset="0.62" stop-color="#d7b998"/><stop offset="0.86" stop-color="#cba479"/><stop offset="1" stop-color="#c69c6d"/></linearGradient><linearGradient id="Sky" x1="412.39" y1="342.21" x2="532.27" y2="462.09" gradientUnits="userSpaceOnUse"><stop offset="0" stop-color="#cce0f4"/><stop offset="0.06" stop-color="#c3dcf2"/><stop offset="0.17" stop-color="#a9d2ee"/><stop offset="0.31" stop-color="#80c2e7"/><stop offset="0.46" stop-color="#47acde"/><stop offset="0.57" stop-color="#1e9cd7"/><stop offset="0.87" stop-color="#0075be"/><stop offset="0.99" stop-color="#005b97"/></linearGradient></defs><title>Artboard 12</title><polygon class="cls-1" points="137 377 137 426.88 137 474 660 474 660 426.88 660 377 137 377"/><polygon class="cls-2" points="659.95 280 139.38 280 137 280.14 137 329.79 137 377 660 377 660 329.79 660 280.14 659.95 280"/><polygon class="cls-3" points="137 474 137 523.96 137 571 660 571 660 523.96 660 474 137 474"/><polygon class="cls-4" points="137 571 137 619.22 137 667 660 667 660 619.22 660 571 137 571"/><polygon class="cls-5" points="486.43 186 399.67 138.37 312.9 186 486.43 186"/><polygon class="cls-6" points="573.19 233 486.43 186 312.9 186 226.14 233 139.38 280 659.95 280 573.19 233"/><polyline class="cls-7" points="141.23 275.45 396 136.49 658.72 275.45"/><circle class="cls-8" cx="644.47" cy="328.72" r="48.54"/><circle class="cls-9" cx="644.47" cy="425.5" r="48.54"/><circle class="cls-10" cx="644.47" cy="522.28" r="48.54"/><circle class="cls-11" cx="644.47" cy="619.06" r="48.54"/><circle class="cls-12" cx="154.78" cy="328.72" r="48.54"/><circle class="cls-13" cx="154.78" cy="425.5" r="48.54"/><circle class="cls-14" cx="154.78" cy="522.28" r="48.54"/><circle class="cls-15" cx="154.78" cy="619.06" r="48.54"/><polyline class="cls-16" points="101.44 280.33 395.38 120 698.51 280.33"/><rect class="cls-17" x="249.2" y="426.88" width="100.14" height="239.96"/><polygon class="cls-18" points="368.88 454.96 229.66 454.96 237.6 437.87 357.28 437.87 368.88 454.96"/><rect class="cls-17" x="399.98" y="329.79" width="144.71" height="144.71"/><rect class="cls-19" x="412.39" y="342.21" width="119.88" height="119.88"/></svg>