<svg id="Layer_1" data-name="Layer 1" xmlns="http://www.w3.org/2000/svg" xmlns:xlink="http://www.w3.org/1999/xlink" viewBox="0 0 400 400"><defs><style>.cls-1{fill:url(#linear-gradient);}</style><linearGradient id="linear-gradient" x1="188.98" y1="99.06" x2="188.98" y2="211.11" gradientUnits="userSpaceOnUse"><stop offset="0" stop-color="#fff"/><stop offset="0.38" stop-color="#fcfeff"/><stop offset="0.63" stop-color="#f3f9ff"/><stop offset="0.84" stop-color="#e4f1ff"/><stop offset="1" stop-color="#d4e9ff"/></linearGradient></defs><title>Artboard 12</title><path class="cls-1" d="M297.38,164.13c6.26-5.5,9.92-12.14,9.92-19.29,0-19-25.74-34.34-57.48-34.34-14.84,0-28.37,3.36-38.56,8.88-4.49-12-14.54-20.32-26.24-20.32s-21.67,8.28-26.18,20.18a34.34,34.34,0,0,0-55.27,37c-23.11,5.81-37.48,13.94-37.48,23,0,17.63,55,31.93,122.89,31.93s122.89-14.29,122.89-31.93C311.87,173.74,306.62,168.62,297.38,164.13Z"/></svg>