<svg id="Layer_1" data-name="Layer 1" xmlns="http://www.w3.org/2000/svg" xmlns:xlink="http://www.w3.org/1999/xlink" viewBox="0 0 2000 2000"><defs><style>.cls-1{fill:none;}.cls-2{fill:#666;}.cls-3{fill:url(#linear-gradient);}.cls-4{fill:url(#linear-gradient-2);}.cls-5{fill:url(#linear-gradient-3);}.cls-6{fill:#fff;opacity:0.43;isolation:isolate;}</style><linearGradient id="linear-gradient" x1="1167.6" y1="698" x2="1167.6" y2="614" gradientTransform="matrix(1, 0, 0, -1, 0, 2000)" gradientUnits="userSpaceOnUse"><stop offset="0" stop-color="#b3b3b3"/><stop offset="1" stop-color="#666"/></linearGradient><linearGradient id="linear-gradient-2" x1="1279.86" y1="907.06" x2="1055.39" y2="682.6" gradientTransform="matrix(1, 0, 0, -1, 0, 2000)" gradientUnits="userSpaceOnUse"><stop offset="0" stop-color="#cce0f4" stop-opacity="0.3"/><stop offset="0.1" stop-color="#c6ddf3" stop-opacity="0.33"/><stop offset="0.21" stop-color="#b3d6f0" stop-opacity="0.4"/><stop offset="0.34" stop-color="#94caeb" stop-opacity="0.52"/><stop offset="0.48" stop-color="#69b9e4" stop-opacity="0.7"/><stop offset="0.62" stop-color="#32a4da" stop-opacity="0.5"/><stop offset="0.67" stop-color="#1e9cd7" stop-opacity="0.6"/><stop offset="0.87" stop-color="#0075be" stop-opacity="0.7"/><stop offset="0.99" stop-color="#005b97" stop-opacity="0.8"/></linearGradient><linearGradient id="linear-gradient-3" x1="1167.62" y1="1103.41" x2="1167.62" y2="922.01" gradientTransform="matrix(1, 0, 0, -1, 0, 2000)" gradientUnits="userSpaceOnUse"><stop offset="0.01" stop-color="#4d4d4d"/><stop offset="0.88" stop-color="#fff"/><stop offset="1" stop-color="#b3b3b3"/></linearGradient></defs><title>Artboard 12</title><g id="Layer_3" data-name="Layer 3"><line class="cls-1" x1="2080.16" y1="-10.75" x2="-23.36" y2="2092.77"/><rect class="cls-2" x="-459.01" y="1036.12" width="2974.82" height="10" transform="translate(-434.97 1032.13) rotate(-45)"/><path class="cls-3" d="M1137.1,1386h61c48.9,0,89.75-37,97.11-84H1040C1047.35,1349,1088.2,1386,1137.1,1386Z"/><path class="cls-4" d="M1295,1149.95c0-28.38-10.76-53.95-30.17-71.95H1070.42c-19.4,18-32.42,43.56-32.42,71.95v137c0,5.16,1.22,11.06,2,15.06h255.26c.78-4-.25-9.9-.25-15.06Z"/><path class="cls-5" d="M1198.15,1053h-6.46c-21.11-22-18.06-92.64-18.62-156.41l-12.5,13.94c.29,52,6.89,108.46-18.75,142.46h-4.72c-25.68,0-49.13,9-66.69,25h194.42C1247.28,1062,1223.83,1053,1198.15,1053Z"/><path class="cls-6" d="M1054.36,1196s-.13,26.63.13,66.44c.06,9.74,3.27,17.55,7.21,17.55h8.72S1054.77,1284,1054.36,1196Z"/></g></svg>