<?xml version="1.0" encoding="utf-8"?>
<!-- Generator: Adobe Illustrator 19.0.0, SVG Export Plug-In . SVG Version: 6.00 Build 0)  -->
<svg version="1.1" xmlns="http://www.w3.org/2000/svg" xmlns:xlink="http://www.w3.org/1999/xlink" x="0px" y="0px"
	 viewBox="0 0 1500 1000" style="enable-background:new 0 0 1500 1000;" xml:space="preserve">
<style type="text/css">
	.st0{display:none;}
	.st1{display:inline;fill:#0000FF;}
	.st2{display:inline;fill:#FF0000;}
	.st3{display:inline;fill:#39B54A;}
	.st4{display:inline;fill:#FBB03B;}
	.st5{display:inline;fill:#662D91;}
</style>
<g id="Layer_1" class="st0">
</g>
<g id="Layer_7" class="st0">
	<path id="XMLID_2_" class="st1" d="M0,374.4l48.3-74.1c0,0,12.9,2.6,24.1,0c11.2-2.6,124.1-103.4,124.1-103.4L284.5,77l57.8-47.4
		l118.1,100l55.2,79.3l151.7,196.6c0,0,136.2,9.5,144,10.3c7.8,0.9,87.1,50.9,91.4,47.4c4.3-3.4,165.5-119.8,165.5-119.8
		s99.1-100,114.7-125c15.5-25,126.7-88.8,126.7-88.8l61.2-47.4L1475,237.4l25,70.7V1000H0V374.4z"/>
</g>
<g id="Layer_2" class="st0">
	<path id="XMLID_3_" class="st2" d="M-0.1,406.3l78.5-37.1c0,0,122.4-40.5,124.2-43.1c1.7-2.6,137.9-90.5,137.9-90.5l85.3,90.5
		c0,0,44,97.4,46.6,97.4s199.1-69.8,199.1-69.8l67.2,75.9l75,70.4l108.6,68.4l86.2,63.8l152.6,34.5l152.6-41.4l104.3-86.2l81.9,68.1
		V1000H-7L-0.1,406.3z"/>
</g>
<g id="Layer_3" class="st0">
	<polygon id="XMLID_1_" class="st3" points="-1,445 72,445 118.1,424.4 223.3,362.4 287.1,452 488.8,348.6 551.7,443.4 733.6,575.3 
		910.3,684.8 1060.3,604.6 1294,702 1500,547.7 1500,1000 -1,1000 	"/>
</g>
<g id="Layer_4" class="st0">
	<path id="XMLID_4_" class="st4" d="M1444.8,659l-205.2-165.5l-147.4,175.9l-189.7,79.3c0,0-135.3-51.7-138.8-53.5
		c-3.4-1.7-65.5-0.9-65.5-0.9s-108.6,14.7-113.8,12.9c-5.2-1.7-65.5-73.3-65.5-73.3l-127.6-40.5L214.7,652L0,514.8V1000h1500V734
		L1444.8,659z"/>
</g>
<g id="Layer_5" class="st0">
	<path id="XMLID_6_" class="st5" d="M37.9,733.1l190.5-178.4l180.2,243.1c0,0,106,14.7,115.5,14.7c9.5,0,185.3,61.2,185.3,61.2
		l116.4-207.8l220.7,175.9c0,0,113.8-33.6,127.6-41.4c13.8-7.8,146.6-86.2,146.6-86.2l179.3,45.7V1000H-7l7-259.2L37.9,733.1z"/>
</g>
<g id="Layer_6">
	<path id="XMLID_5_" d="M6,831.2l98.3,24.2c0,0,123.3,28.5,130.2,25.9c6.9-2.6,182.8-156.9,182.8-156.9L569,920.1
		c0,0,239.7,35.4,242.2,34.5c2.6-0.9,60.3-58.6,60.3-58.6l84.5,2.6l147.4-121.3l209.5,86.8l187.1-63.8V1000H0V831L6,831.2z"/>
</g>
</svg>
