<svg id="Layer_1" data-name="Layer 1" xmlns="http://www.w3.org/2000/svg" xmlns:xlink="http://www.w3.org/1999/xlink" viewBox="0 0 200 200"><defs><style>.cls-1{fill:url(#linear-gradient);}.cls-2{fill:none;stroke:#000;stroke-miterlimit:10;}.cls-3{fill:url(#linear-gradient-2);}.cls-4{fill:url(#linear-gradient-3);}.cls-5{fill:url(#linear-gradient-4);}.cls-6{fill:url(#linear-gradient-5);}.cls-7{fill:url(#linear-gradient-6);}.cls-8{fill:url(#linear-gradient-7);}.cls-9{fill:url(#linear-gradient-8);}.cls-10{fill:url(#linear-gradient-9);}.cls-11{fill:url(#linear-gradient-10);}</style><linearGradient id="linear-gradient" x1="112.83" y1="115.04" x2="112.83" y2="194.41" gradientUnits="userSpaceOnUse"><stop offset="0" stop-color="#fcee21"/><stop offset="1" stop-color="#8cc63f"/></linearGradient><linearGradient id="linear-gradient-2" x1="113.76" y1="147.04" x2="113.76" y2="174.73" gradientUnits="userSpaceOnUse"><stop offset="0" stop-color="#666"/><stop offset="1"/></linearGradient><linearGradient id="linear-gradient-3" x1="112.6" y1="117.67" x2="112.6" y2="140.59" xlink:href="#linear-gradient-2"/><linearGradient id="linear-gradient-4" x1="128.23" y1="71.35" x2="62.62" y2="136.96" gradientUnits="userSpaceOnUse"><stop offset="0" stop-color="#8c6239"/><stop offset="1" stop-color="#42210b"/></linearGradient><linearGradient id="linear-gradient-5" x1="98.44" y1="22.82" x2="98.44" y2="144.59" gradientUnits="userSpaceOnUse"><stop offset="0" stop-color="#f15a24"/><stop offset="1" stop-color="#c1272d"/></linearGradient><linearGradient id="linear-gradient-6" x1="95.83" y1="9.91" x2="95.83" y2="49.09" gradientUnits="userSpaceOnUse"><stop offset="0" stop-color="#666"/><stop offset="0.23" stop-color="#636363"/><stop offset="0.42" stop-color="#585858"/><stop offset="0.6" stop-color="#474747"/><stop offset="0.77" stop-color="#2f2f2f"/><stop offset="0.93" stop-color="#101010"/><stop offset="1"/></linearGradient><linearGradient id="linear-gradient-7" x1="143.45" y1="64.83" x2="143.45" y2="91.98" gradientUnits="userSpaceOnUse"><stop offset="0" stop-color="#c69c6d"/><stop offset="1" stop-color="#a67c52"/></linearGradient><linearGradient id="linear-gradient-8" x1="62.99" y1="133.2" x2="62.99" y2="162.33" xlink:href="#linear-gradient-7"/><linearGradient id="linear-gradient-9" x1="94.8" y1="5.59" x2="94.8" y2="32.35" gradientUnits="userSpaceOnUse"><stop offset="0" stop-color="#ccc"/><stop offset="1" stop-color="gray"/></linearGradient><linearGradient id="linear-gradient-10" x1="87.05" y1="30.23" x2="110.54" y2="30.23" gradientUnits="userSpaceOnUse"><stop offset="0" stop-color="#e9d700"/><stop offset="0.05" stop-color="#ebd003"/><stop offset="0.28" stop-color="#f4b50f"/><stop offset="0.51" stop-color="#faa217"/><stop offset="0.75" stop-color="#fe971c"/><stop offset="1" stop-color="#ff931e"/></linearGradient></defs><title>Artboard 12</title><path class="cls-1" d="M94.53,149.12c.83,23.27-19.95,45.3,20.78,45.3,37.82,0,11.22-25.76,12.47-47.79S132.06,115,112.83,115C87,115,94.22,140.39,94.53,149.12Z"/><polyline class="cls-2" points="76.11 53.8 49.51 97.59 62.81 147.04"/><path class="cls-3" d="M95.83,170.31S116.48,179,128.5,172c0,0,12.13-11.64-11-17.25l-8-7.69-9.26,10.39Z"/><path class="cls-4" d="M97.77,136.93s17.09,7.22,27,1.38c0,0,10-9.63-9.09-14.27l-6.66-6.36-7.66,8.6Z"/><path class="cls-5" d="M125.21,68.33,82.37,75.48,73.59,77.7l-4.76-2.22-21.56,4S46.45,109.37,89.56,109c0,0-6.22,39.38,4.15,47.67,0,0-1.27,8.71,2.27,13.68,0,0,7-16.58,21.63-15.55,0,0,6.78-12.23-2.34-18l-3.58-13.46a42.65,42.65,0,0,1,8.14,2.89c8.29-5.18.2-13.89.2-13.89C125.62,108.54,125.21,68.33,125.21,68.33ZM105.28,99.22l-2-7.67L99.1,89.62c8.25-3.85,14.91-7.19,14.91-7.19S109.92,90.14,105.28,99.22Z"/><path class="cls-6" d="M150.48,62.42s5.47-5.89-3.79-20.63-9.26-14.74-13.89-19L91,30.57c-1.42-.84-2.44-1.34-2.44-1.34S70.07,11.06,73.44,35.9c0,0-31,19.45-26.94,43.78,0,0,3-.1,7.37-.18L42.28,97.37s1.26,37.89,6.74,40.42c0,0-4.21,7.58,7.37,6.74s23.79-11.37.63-40.42L70.12,79.49c7.37.17,13.74.68,14.26,1.87,1.26,2.95-1-28.27,11.56-35.36L129,36.32s-3.82,42.49,13,45.24S155.53,65.37,150.48,62.42Z"/><path class="cls-7" d="M82.75,32.35C84.29,41.72,95.22,50.22,100.21,49s12.79-12.2,7.48-29.09C103.12,5.34,78.18,4.5,82.75,32.35Z"/><path class="cls-8" d="M139.69,77.23s-19.38,8.51-4-7.06,21.44,7.48,21.44,12.05S156.72,104.24,139.69,77.23Z"/><path class="cls-9" d="M69,144.75s0,16-16.21,17.52S51.59,136,59.07,133.47,96.47,146.89,69,144.75Z"/><path class="cls-10" d="M109.46,25.53s1.24-7.2-1.78-7.76c0,0-7.59-17.55-20.63-10.53s-4.3,25.1-4.3,25.1S94.49,22.57,109.46,25.53Z"/><path class="cls-11" d="M98.84,32.35s6.4,10.11,10.58,0c4.5-10.88-5.7-9.68-11.13-9.17S84.73,24,87.68,32.35,97.26,37.87,98.84,32.35Z"/></svg>