<svg id="Layer_1" data-name="Layer 1" xmlns="http://www.w3.org/2000/svg" viewBox="0 0 400 400"><defs><style>.cls-1{fill:#fff;}</style></defs><title>Artboard 1</title><path class="cls-1" d="M289.12,149.91a28.48,28.48,0,0,0,.58-5.73c0-20.88-22.82-37.8-51-37.8a63.48,63.48,0,0,0-29.43,7c-4.65-4.19-12.55-7-21.53-7-12.72,0-23.29,5.54-25.48,12.85a62.61,62.61,0,0,0-9-.65c-21.46,0-38.86,10.65-38.86,23.8a15.82,15.82,0,0,0,2.34,8.15c-23,4-37.28,9.52-37.28,15.65,0,12.14,56.1,22,125.3,22s125.3-9.84,125.3-22C330.06,159.73,314.27,153.93,289.12,149.91Z"/></svg>