<svg id="Layer_1" data-name="Layer 1" xmlns="http://www.w3.org/2000/svg" xmlns:xlink="http://www.w3.org/1999/xlink" viewBox="0 0 2000 4000"><defs><style>.cls-1{fill:#fff;}.cls-2{fill:url(#linear-gradient);}</style><linearGradient id="linear-gradient" x1="1000" y1="3453.86" x2="1000" y2="1119" gradientUnits="userSpaceOnUse"><stop offset="0" stop-color="#fff" stop-opacity="0"/><stop offset="1"/></linearGradient></defs><title>Artboard 12</title><path d="M0,0V1125H2000V0ZM1891,848.86c-54.4,156.94-475.55,408.57-631.58,166.46-142-220.32-258.26-205.63-258.26-205.63s-131-7.34-258.26,205.63C595.11,1262.55,161.27,978,111.3,848.86,54.45,701.86,3.59,300.51,304.69,156.08S868.95,9.2,1001.14,9.2s395.35,2.45,696.45,146.88S1942.6,699.94,1891,848.86Z"/><path class="cls-1" d="M1768.05,452.88,1833,439.23s35.55,316.64-60.94,450.84C1772.06,890.06,1812.05,536.88,1768.05,452.88Z"/><circle class="cls-1" cx="1776" cy="366.23" r="43"/><rect class="cls-2" y="1119" width="2000" height="2334.86"/></svg>