<svg id="Layer_3" data-name="Layer 3" xmlns="http://www.w3.org/2000/svg" xmlns:xlink="http://www.w3.org/1999/xlink" viewBox="0 0 2000 2000"><defs><style>.cls-1{fill:#666;}.cls-2{fill:url(#linear-gradient);}</style><linearGradient id="linear-gradient" x1="1167.5" y1="903" x2="1167.5" y2="1320" gradientUnits="userSpaceOnUse"><stop offset="0" stop-color="#666"/><stop offset="0.17" stop-color="#5d5d5d"/><stop offset="0.44" stop-color="#444"/><stop offset="0.79" stop-color="#1c1c1c"/><stop offset="1"/></linearGradient></defs><title>Artboard 12</title><line class="cls-1" x1="2080.16" y1="-10.75" x2="-23.36" y2="2092.77"/><rect class="cls-1" x="-459.01" y="1036.01" width="2974.82" height="10" transform="translate(-434.89 1032.2) rotate(-45)"/><path class="cls-2" d="M1241.35,1032H1173V903h-12v129h-66.94c-21.67,0-39.06,18-39.06,39.66v208.7c0,21.67,17.39,39.64,39.06,39.64h147.29c21.67,0,38.65-18,38.65-39.64v-208.7C1280,1050,1263,1032,1241.35,1032ZM1067,1207v-64h201v64Zm27.06-163h147.29c14.94,0,26.65,12.71,26.65,27.66V1131H1067v-59.34C1067,1056.71,1079.11,1044,1094.06,1044Z"/></svg>