<svg id="Layer_4" data-name="Layer 4" xmlns="http://www.w3.org/2000/svg" xmlns:xlink="http://www.w3.org/1999/xlink" viewBox="0 0 400 400"><defs><style>.cls-1{fill:url(#radial-gradient);}.cls-2{fill:#fff;}.cls-3{fill:#0071bc;}</style><radialGradient id="radial-gradient" cx="195.5" cy="189" r="184.3" gradientUnits="userSpaceOnUse"><stop offset="0" stop-color="#fcee21"/><stop offset="1" stop-color="#fbb03b"/></radialGradient></defs><title>Artboard 12</title><polygon class="cls-1" points="200 9 226.72 56.33 333 25 308 97 347 124 309 184 384 298 296 280 267 369 189 318 52 358 90.95 262.28 14 248 63 191 7 101 92 101 101 23 141 64 200 9"/><path d="M169.78,99.84s70.53-28.28,92.05-39.39c27.67-14.29,37.73-8.59,42.45-5.45S325.17,74.07,320,94.78s-34.81,24.09-50.16,29.83-77.94,28.48-89,32.86-64.53,27.73-72.46,32S72.74,212.87,55.06,197s-17.5-38.41-5.84-50.8,48.65-18.79,64.05-24.88S169.78,99.84,169.78,99.84Z"/><path d="M172.26,80.76l-11.67,4.73-.35,7.85-4.43,1.8,1.75-34.43L182.3,84.4l-4.5,1.82ZM169,77.58l-7.8-7.63-.48,11Z"/><path class="cls-2" d="M71.83,160.67,69.29,164a6.18,6.18,0,0,0-2.64-1.4,4.49,4.49,0,0,0-2.51.36,4.54,4.54,0,0,0-2.45,2.12,3.24,3.24,0,0,0-.16,2.86q.81,2,4.27,2H69a12.52,12.52,0,0,1,6.18,1.31,8,8,0,0,1,3.46,4.12,9,9,0,0,1,0,7.23,9.28,9.28,0,0,1-5.26,5,9,9,0,0,1-6.71.27,10.43,10.43,0,0,1-5.24-4.76l3.79-2.61a7.64,7.64,0,0,0,2.33,2.92,5.07,5.07,0,0,0,7.09-2.32,4.81,4.81,0,0,0-.05-3.78,4.93,4.93,0,0,0-.81-1.37,4,4,0,0,0-1.18-.94,5.92,5.92,0,0,0-1.63-.55,12.74,12.74,0,0,0-2.14-.21l-3.07,0q-6.55-.1-8.4-4.65a7.08,7.08,0,0,1,.27-6.09,9.15,9.15,0,0,1,5-4.45Q67.32,157.15,71.83,160.67Z"/><path class="cls-2" d="M86.89,181.56,75.1,152.46l28.3,12.74-7.67-18.94,4.11-1.67,11.72,28.91L83.27,160.82,91,179.9Z"/><path class="cls-2" d="M110.72,155.9a14.39,14.39,0,0,1,.21-11.59,15,15,0,0,1,8.42-8.22,15.38,15.38,0,0,1,19.92,8.43,14.46,14.46,0,0,1-.16,11.67,15.54,15.54,0,0,1-19.47,8.43A14.45,14.45,0,0,1,110.72,155.9Zm4.17-1.63a10.63,10.63,0,0,0,6,6.2,10.85,10.85,0,0,0,14.19-5.81A11.41,11.41,0,0,0,129.24,140a11,11,0,0,0-14.35,5.81A10.61,10.61,0,0,0,114.89,154.27Z"/><path class="cls-2" d="M139.08,128.68,153.56,144l-.5-22.54,15,16.66.15-21.27,4.46-1.81L172.25,149l-14.83-16.47.53,22.29-23.33-24.3Z"/><path class="cls-2" d="M187.12,140.94l-11-27.25,4.09-1.66a19.35,19.35,0,0,1,4.53-1.34A7.09,7.09,0,0,1,188,111a8,8,0,0,1,2.87,1.86,8.46,8.46,0,0,1,2,2.9,7,7,0,0,1-.23,5.87,7.11,7.11,0,0,1,4.47,1.21,8.29,8.29,0,0,1,2.93,10.07,8,8,0,0,1-2.29,3.13,19.15,19.15,0,0,1-4.43,2.39Zm-2.19-17.21,1.29-.52a5.12,5.12,0,0,0,3-2.38,4.25,4.25,0,0,0-.14-3.42,4,4,0,0,0-2.28-2.48,4.92,4.92,0,0,0-3.58.29l-1.45.59Zm4.74,11.68,2.54-1a6.81,6.81,0,0,0,3.65-2.75,4.09,4.09,0,0,0,.16-3.56,4.15,4.15,0,0,0-2.53-2.43q-1.77-.66-5.09.68l-2.08.84Z"/><path class="cls-2" d="M201.35,119.17a14.4,14.4,0,0,1,.21-11.59A15,15,0,0,1,210,99.35a15.38,15.38,0,0,1,19.92,8.43,14.46,14.46,0,0,1-.16,11.67,15.54,15.54,0,0,1-19.47,8.43A14.45,14.45,0,0,1,201.35,119.17Zm4.17-1.63a10.62,10.62,0,0,0,6,6.2,10.85,10.85,0,0,0,14.19-5.81,11.41,11.41,0,0,0-5.89-14.63,10.37,10.37,0,0,0-8.37-.06,10.48,10.48,0,0,0-6,5.88A10.61,10.61,0,0,0,205.52,117.54Z"/><path class="cls-2" d="M252.52,106.73l-11.67,4.73-.35,7.85-4.43,1.79,1.75-34.43,24.74,23.69-4.5,1.82Zm-3.24-3.19-7.8-7.63-.48,11Z"/><path class="cls-2" d="M270.5,93.63l13.14,8.19-5,2-12.3-8-.74.3,4.52,11.15L266,109l-11-27.25,4.82-2q5.4-2.19,8.62-1.13a8,8,0,0,1,5.07,4.89,8.35,8.35,0,0,1,.36,5.65A8,8,0,0,1,270.5,93.63Zm-6.38-1,1.31-.53q5.84-2.37,4-6.83-1.7-4.18-7.38-1.88l-1.46.59Z"/><path class="cls-2" d="M287.73,100.17l-11-27.25,5.72-2.32a22.47,22.47,0,0,1,6.82-1.82,13.13,13.13,0,0,1,5.74.82,14.07,14.07,0,0,1,8.32,8.4,14.3,14.3,0,0,1-3.8,16.52,22.7,22.7,0,0,1-6.1,3.35Zm2.55-5.53,1.85-.75a16.69,16.69,0,0,0,4.37-2.45,10.09,10.09,0,0,0,2.63-11.75,10.22,10.22,0,0,0-5.95-6.06q-3.71-1.39-9,.74l-1.85.75Z"/><path d="M113.93,229.4l-11.67,4.73-.35,7.85-4.43,1.8,1.75-34.43L124,233l-4.5,1.82Zm-3.24-3.19-7.8-7.63-.48,11Z"/><path d="M127.38,231.65l-11-27.25,5.72-2.32a22.42,22.42,0,0,1,6.82-1.82,13.11,13.11,0,0,1,5.74.82,15.21,15.21,0,0,1,8,20.35,13.86,13.86,0,0,1-3.53,4.57,22.69,22.69,0,0,1-6.1,3.35Zm2.55-5.53,1.85-.75a16.71,16.71,0,0,0,4.37-2.45,10.09,10.09,0,0,0,2.63-11.75,10.21,10.21,0,0,0-5.95-6.06q-3.71-1.39-9,.74l-1.85.75Z"/><path d="M142.95,193.61l15.19,15.83v-22l4.5-1.82-.36,34.25-23.82-24.46Z"/><path d="M182.62,182l-10.92,4.43,2.65,6.55,10.61-4.3,1.57,3.87-10.61,4.3L179.6,206l10.92-4.43,1.57,3.86-15,6.09-11-27.25,15-6.09Z"/><path d="M197.5,203.23l-11.79-29.1L214,186.87l-7.68-18.94,4.11-1.67,11.72,28.91-28.28-12.68,7.73,19.08Z"/><path d="M226.05,164.43l9.48,23.38-4.11,1.67-9.48-23.38-6.27,2.54-1.57-3.86L230.73,158l1.57,3.86Z"/><path d="M238.51,154.88l6.65,16.41q1.42,3.51,3.23,4.67a6.62,6.62,0,0,0,9.65-3.91q.51-2-.93-5.6L250.46,150l4.11-1.67,7.11,17.54a10.59,10.59,0,0,1,.19,8.18,11.2,11.2,0,0,1-14.81,6,10.59,10.59,0,0,1-5.56-6l-7.11-17.54Z"/><path d="M276.67,157.62l13.14,8.19-5,2-12.3-8-.74.3,4.52,11.15L272.15,173l-11-27.25,4.82-2q5.4-2.19,8.62-1.13a8,8,0,0,1,5.07,4.89,8.36,8.36,0,0,1,.36,5.65A8,8,0,0,1,276.67,157.62Zm-6.38-1,1.31-.53q5.84-2.37,4-6.83-1.69-4.18-7.38-1.88l-1.46.59Z"/><path d="M299.47,134.68l-10.92,4.43,2.65,6.55,10.61-4.3,1.57,3.87-10.61,4.3,3.69,9.11,10.92-4.43,1.57,3.86-15,6.09-11-27.25,15-6.09Z"/><path class="cls-3" d="M221.12,233.9l9.23-15.56,2.34,1.39a11.93,11.93,0,0,1,2.35,1.72,4.36,4.36,0,0,1,1.1,1.76,4.93,4.93,0,0,1,.16,2.1,5.22,5.22,0,0,1-.68,2,4.28,4.28,0,0,1-3,2.07,4.37,4.37,0,0,1,1.08,2.64,5.1,5.1,0,0,1-3.84,5.19,4.93,4.93,0,0,1-2.38,0,11.83,11.83,0,0,1-2.82-1.28Zm3.66-.81,1.45.86a4.19,4.19,0,0,0,2.71.76,2.51,2.51,0,0,0,1.8-1.25,2.55,2.55,0,0,0,.25-2.14,4.56,4.56,0,0,0-2.23-2.24l-1.19-.71Zm4-6.67.74.44a3.15,3.15,0,0,0,2.26.56,2.61,2.61,0,0,0,1.62-1.35,2.49,2.49,0,0,0,.37-2,3,3,0,0,0-1.48-1.65l-.83-.49Z"/><path class="cls-3" d="M239.67,235.82l.17-11.85,2.7,1.6-.13,8.33,7.26-4.1,2.7,1.6L242,237.22l-4,6.72-2.35-1.39Z"/><path class="cls-3" d="M184,245.39l9.23-15.56,3.27,1.94a13.84,13.84,0,0,1,3.43,2.66,8.06,8.06,0,0,1,1.73,3.12,9.36,9.36,0,0,1-7,11.52,8.51,8.51,0,0,1-3.55,0,14,14,0,0,1-3.92-1.74Zm3.66-.81,1.06.63a10.28,10.28,0,0,0,2.83,1.23,6.64,6.64,0,0,0,7.49-8.26,7.54,7.54,0,0,0-3.7-4.12l-1.06-.63Z"/><path class="cls-3" d="M210.61,240.11l-9.23,15.56L199,254.28l9.23-15.56Z"/><path class="cls-3" d="M221.62,249.64l-6.24-3.7-2.22,3.74,6.06,3.59-1.31,2.21-6.06-3.59-3.09,5.2,6.24,3.7L213.7,263l-8.59-5.1,9.23-15.56,8.59,5.09Z"/><path class="cls-3" d="M229.59,261.46l6.43,3.82-.31.51a12.33,12.33,0,0,1-2.26,2.86,7.68,7.68,0,0,1-2.75,1.53,8.19,8.19,0,0,1-7-.83,8.81,8.81,0,0,1-4.19-5.68,9.44,9.44,0,0,1,17-7.58,11.43,11.43,0,0,1,1.54,4.18l-2.62.61a6.6,6.6,0,0,0-3.15-5.32,6.48,6.48,0,0,0-5.15-.75A6.62,6.62,0,0,0,223,258a6.8,6.8,0,0,0,2.18,9.19,5.46,5.46,0,0,0,3.81.68,4.84,4.84,0,0,0,3.22-1.91l-3.88-2.3Z"/><path class="cls-3" d="M238,266.83a8.87,8.87,0,0,1,5.76-4.21,9.21,9.21,0,0,1,7.16,1.06,9.46,9.46,0,0,1,3.29,12.89,8.9,8.9,0,0,1-5.78,4.27,9.56,9.56,0,0,1-11.38-6.4A8.89,8.89,0,0,1,238,266.83Zm2.35,1.44a6.54,6.54,0,0,0-.78,5.27,6.67,6.67,0,0,0,8.13,4.78,7,7,0,0,0,5-8.33,6.75,6.75,0,0,0-8.19-4.86A6.53,6.53,0,0,0,240.4,268.26Z"/><path class="cls-3" d="M149.68,258.49l13.2-14.78L161.05,259l12.71-8.81-7,18.47-2.41-1.43,4.07-10.28-10.6,7.38,1.53-12.77-7.25,8.41Z"/><path class="cls-3" d="M186.58,262.33l-6.24-3.7-2.22,3.74,6.06,3.59-1.31,2.21-6.06-3.59-3.09,5.2,6.24,3.7-1.31,2.21-8.59-5.1L179.31,255l8.59,5.1Z"/><path class="cls-3" d="M181.74,277.51l9.86-16.62,4.3,18.61,6.42-10.81,2.35,1.39-9.8,16.51L190.55,268l-6.46,10.89Z"/><path class="cls-3" d="M203.19,279.63a8.86,8.86,0,0,1,5.76-4.21,9.22,9.22,0,0,1,7.16,1.06,9.46,9.46,0,0,1,3.29,12.89,8.89,8.89,0,0,1-5.78,4.27,9.56,9.56,0,0,1-11.38-6.4A8.89,8.89,0,0,1,203.19,279.63Zm2.35,1.44a6.54,6.54,0,0,0-.78,5.27,6.68,6.68,0,0,0,8.13,4.78,7,7,0,0,0,5-8.33,6.75,6.75,0,0,0-8.19-4.86A6.53,6.53,0,0,0,205.54,281.06Z"/><path class="cls-3" d="M238,291l-1.65,2.78a7.57,7.57,0,0,0-3.2-4.2,6.24,6.24,0,0,0-5.06-.67,6.75,6.75,0,0,0-4.14,3.21,6.6,6.6,0,0,0-.8,5.11,6.35,6.35,0,0,0,3.05,4.09,5.78,5.78,0,0,0,2.35.85,7,7,0,0,0,1.33.05,13.72,13.72,0,0,0,1.58-.18l-1.68,2.83a9.87,9.87,0,0,1-4.91-1.37,9.09,9.09,0,0,1-4.31-5.71,9,9,0,0,1,1-7.06,9.29,9.29,0,0,1,5.11-4.13,9.1,9.1,0,0,1,8,.86A9.24,9.24,0,0,1,238,291Z"/><path class="cls-3" d="M244,309.33l-6.66-4-4,2.75-2.53-1.5,17.51-12-2.39,20.95-2.57-1.52Zm.35-2.78.83-6.66-5.56,3.86Z"/><path class="cls-3" d="M259.45,302.59l-7.92,13.35,4.57,2.71-1.31,2.21-6.92-4.11,9.23-15.56Z"/></svg>