<svg id="Layer_1" data-name="Layer 1" xmlns="http://www.w3.org/2000/svg" xmlns:xlink="http://www.w3.org/1999/xlink" viewBox="0 0 400 400"><defs><style>.cls-1{fill:url(#linear-gradient);}.cls-2{fill:url(#linear-gradient-2);}</style><linearGradient id="linear-gradient" x1="196.81" y1="188" x2="196.81" y2="399.98" gradientUnits="userSpaceOnUse"><stop offset="0" stop-color="#603813"/><stop offset="0.09" stop-color="#896c50" stop-opacity="0.74"/><stop offset="0.21" stop-color="#b4a190" stop-opacity="0.47"/><stop offset="0.35" stop-color="#d5cbc1" stop-opacity="0.26"/><stop offset="0.5" stop-color="#ede9e4" stop-opacity="0.11"/><stop offset="0.69" stop-color="#fbfaf9" stop-opacity="0.03"/><stop offset="1" stop-color="#fff" stop-opacity="0"/></linearGradient><linearGradient id="linear-gradient-2" x1="190.72" x2="190.72" y2="216.73" gradientUnits="userSpaceOnUse"><stop offset="0" stop-color="#8cc63f"/><stop offset="1" stop-color="#009245"/></linearGradient></defs><title>Artboard 12</title><path class="cls-1" d="M211.92,188c-6.37,86,33.57,160.84,33.57,160.84l-32.94-45.64L215.29,400,189.2,306.79,176,375.41V303.79l-27.88,38.95C176.25,291.26,162.78,188,162.78,188Z"/><polygon class="cls-2" points="144.11 177.72 116.88 210.97 176.71 200 232.47 216.74 233 200 277.34 212.2 236.58 171.44 273.52 179.08 223.2 105.83 245.5 114.75 216.2 70.8 241.04 82.27 186.9 0 140.21 81.25 158.87 74.62 116.83 124.31 155 112 104.1 184.18 144.11 177.72"/></svg>