<svg id="Layer_1" data-name="Layer 1" xmlns="http://www.w3.org/2000/svg" xmlns:xlink="http://www.w3.org/1999/xlink" viewBox="0 0 400 400"><defs><style>.cls-1{fill:url(#linear-gradient);}.cls-2{fill:url(#linear-gradient-2);}</style><linearGradient id="linear-gradient" x1="198.27" y1="185" x2="198.27" y2="396.98" gradientUnits="userSpaceOnUse"><stop offset="0" stop-color="#603813"/><stop offset="0.09" stop-color="#896c50" stop-opacity="0.74"/><stop offset="0.21" stop-color="#b4a190" stop-opacity="0.47"/><stop offset="0.35" stop-color="#d5cbc1" stop-opacity="0.26"/><stop offset="0.5" stop-color="#ede9e4" stop-opacity="0.11"/><stop offset="0.69" stop-color="#fbfaf9" stop-opacity="0.03"/><stop offset="1" stop-color="#fff" stop-opacity="0"/></linearGradient><linearGradient id="linear-gradient-2" x1="184.35" y1="2.65" x2="184.35" y2="216.66" gradientUnits="userSpaceOnUse"><stop offset="0" stop-color="#8cc63f"/><stop offset="1" stop-color="#009245"/></linearGradient></defs><title>Artboard 12</title><path class="cls-1" d="M219.36,185c-8.83,86,46.52,160.84,46.52,160.84l-45.63-45.64L224,397l-36.44-93.19L169,372.41V300.79l-38.34,38.95c39-51.48,20.62-154.73,20.62-154.73Z"/><polygon class="cls-2" points="184.35 2.65 130.85 69.53 157.6 65.71 118.75 129.4 139.13 123.67 102.82 209.02 157.6 188 196.81 216.66 203.46 188 265.88 205.83 221.55 125.95 245.5 128.13 213.14 64.73 232.56 67.26 184.35 2.65"/></svg>