<svg id="Layer_1" data-name="Layer 1" xmlns="http://www.w3.org/2000/svg" xmlns:xlink="http://www.w3.org/1999/xlink" viewBox="0 0 400 400"><defs><style>.cls-1{fill:url(#linear-gradient);}.cls-2{fill:url(#linear-gradient-2);}</style><linearGradient id="linear-gradient" x1="191.52" y1="185" x2="191.52" y2="396.98" gradientUnits="userSpaceOnUse"><stop offset="0" stop-color="#603813"/><stop offset="0.09" stop-color="#896c50" stop-opacity="0.74"/><stop offset="0.21" stop-color="#b4a190" stop-opacity="0.47"/><stop offset="0.35" stop-color="#d5cbc1" stop-opacity="0.26"/><stop offset="0.5" stop-color="#ede9e4" stop-opacity="0.11"/><stop offset="0.69" stop-color="#fbfaf9" stop-opacity="0.03"/><stop offset="1" stop-color="#fff" stop-opacity="0"/></linearGradient><linearGradient id="linear-gradient-2" x1="185.31" y1="2.65" x2="185.31" y2="229.4" gradientUnits="userSpaceOnUse"><stop offset="0" stop-color="#8cc63f"/><stop offset="1" stop-color="#009245"/></linearGradient></defs><title>Artboard 12</title><path class="cls-1" d="M205.57,185c-5.87,86,31,160.84,31,160.84l-30.37-45.64L208.67,397l-24.28-93.19L172,372.41V300.79l-25.49,38.95C172.45,288.26,160.25,185,160.25,185Z"/><polygon class="cls-2" points="184.35 2.65 130.85 69.53 157.6 65.71 118.11 116.03 139.13 123.67 93.9 195.01 157.6 188 241.04 229.4 228.94 188 276.71 185 221.55 125.95 250.59 116.03 213.14 64.73 232.56 67.26 184.35 2.65"/></svg>